<?xml version="1.0" encoding="utf-8"?>
<!-- Generator: Adobe Illustrator 25.1.0, SVG Export Plug-In . SVG Version: 6.00 Build 0)  -->
<svg version="1.1" id="Layer_1" xmlns="http://www.w3.org/2000/svg" xmlns:xlink="http://www.w3.org/1999/xlink" x="0px" y="0px"
	 viewBox="0 0 1000 200" style="enable-background:new 0 0 1000 200;" xml:space="preserve">
<style type="text/css">
	.st0{fill:#0A549F;}
</style>
<g id="XMLID_1_">
	<path id="XMLID_15_" class="st0" d="M136.1,12.4C87,12.4,47,52.5,47,101.7S87,191,136.1,191s89.1-40,89.1-89.3
		S185.2,12.4,136.1,12.4z M136.1,187.5c-47.2,0-85.7-38.5-85.7-85.8s38.4-85.8,85.7-85.8c47.2,0,85.7,38.5,85.7,85.8
		S183.3,187.5,136.1,187.5z"/>
	<path id="XMLID_7_" class="st0" d="M172.6,126.4l-8.9,28.8L78.7,155l0-1.7l3.8-0.1c3.4-0.1,4.7-0.1,7.4-2.2
		c2.7-2.1,3.9-5.5,3.9-9.3V58.4c0-4.6-2.1-7.4-5.1-9.2c-3-1.8-5.9-2.1-9.9-2.2v-2.3h48.2v2.7c-4,0.1-9.7-0.2-12.7,1.5
		c-3.1,1.8-5,5-5,9.7l0.8,84.7c0,3.5,0.9,4,2.3,4.6c0.8,0.3,3.1,0.7,6.4,0.7l30,0c5.7,0,10.7-5.2,12.5-7.1c1.9-2,8.3-12,10.2-15.7
		L172.6,126.4z"/>
	<path id="XMLID_6_" class="st0" d="M157.6,127.9c0,2.5-0.7,4.9-2.2,7.3c-1.5,2.3-3.7,4.3-6.7,5.8c-3,1.5-6.7,2.2-11.2,2.2
		c-2.8,0-5.3-0.3-7.4-0.8c-2.2-0.5-3-0.8-5.2-1.7c-0.9-0.3-2.5-0.5-2.8-0.5c-0.6,0-1.6,0.5-1.8,1c-0.2,0.4-0.2,1.4-0.5,2.7l-0.8,0.1
		l-0.2-18.1h0.8c1.1,4.3,3.3,9.8,6.5,12c3.2,2.2,7.1,3.3,11.6,3.3c3.4,0,5.7-0.2,7.7-1.4c2-1.2,3.1-3,3.6-4.7
		c0.5-1.7,0.5-5.2,0.3-7.1c-0.3-2.2-2-4.5-4.3-6.6c-2.3-2.1-3.8-2.7-8.5-4.9c-3.3-1.5-5.6-3.1-7.2-4c-0.5-0.3-1.1-0.6-1.6-0.9
		c0,0-3.1-1.8-5.5-3.9c-2.6-2.2-4-5.9-4-10c0-2.5,0.6-3.9,1.9-6.2c1.3-2.3,3.3-4.3,6-5.8c2.7-1.5,6-2.2,10-2.2
		c2.5,0,4.7,0.3,6.6,0.8c1.9,0.5,2.6,0.8,4.7,1.7c0.8,0.3,2,0.5,2.3,0.5c0.6,0,1.7-0.5,1.9-0.9c0.2-0.4,0.3-1.1,0.4-2.5l1.5,0
		l0,19.3l-1.9,0.1c-1-4.3-2.5-10.9-5.4-13.2c-2.9-2.2-6.1-3.9-10.2-3.9c-3.1,0-5.7,1.4-7.5,2.6c-1.8,1.2-2.2,1.8-2.6,3.5
		c-0.5,1.7-1,5.3-0.3,7.1c0.8,2,2.7,3.9,4.8,6c2.1,2.1,3.8,2.4,7.9,4.7c3.2,1.7,4.4,2.1,4.9,2.4c4.3,2.2,7.7,4.3,10.2,6.4
		C156.2,120.5,157.6,123.8,157.6,127.9z"/>
	<path id="XMLID_5_" class="st0" d="M200.3,149.7l-1.7,5.7h-28.5v-0.4h0.7c1,0,2-0.3,3-0.9c1-0.6,1.5-1.6,1.5-3v-27.2
		c0-1.1-0.3-2.1-1-2.9c-0.7-0.8-1.8-1.2-3.5-1.2h-0.7v-0.4h28.5v5.7h-0.4c0-3-2.7-4.6-8.1-4.6h-10v16.4h8.8c1.7,0,3.3-0.2,4.7-0.6
		c1.4-0.4,2.1-1.4,2.3-2.9h0.5v8.2h-0.5c-0.2-0.9-0.6-1.6-1.1-2.1c-0.5-0.5-1.1-0.8-1.6-1c-0.5-0.2-1-0.2-1.4-0.2
		c-0.8-0.1-1.6-0.1-2.4-0.1h-9.2v12.8c0,1,0.2,1.8,0.7,2.5c0.5,0.7,1.6,1.1,3.4,1.1h7.1c1.7,0,3.1-0.2,4.2-0.6
		c1.1-0.4,2-0.9,2.6-1.6c0.6-0.7,1.2-1.5,1.6-2.4H200.3z"/>
</g>
<g>
	<path class="st0" d="M250.4,85.7h4.3v26.1h16.1v3.7h-20.4V85.7z"/>
	<path class="st0" d="M275.7,85.7h4.3v29.8h-4.3V85.7z"/>
	<path class="st0" d="M309.4,100.4h4.1V112c-1.5,1.2-3.2,2.2-5.1,2.8c-2,0.7-4,1-6.1,1c-3,0-5.7-0.7-8.1-2c-2.4-1.3-4.3-3.1-5.7-5.4
		c-1.4-2.3-2.1-4.9-2.1-7.8s0.7-5.5,2.1-7.8c1.4-2.3,3.3-4.1,5.7-5.4c2.4-1.3,5.1-2,8.2-2c2.4,0,4.5,0.4,6.5,1.2
		c1.9,0.8,3.6,1.9,5,3.4l-2.6,2.6c-2.4-2.3-5.3-3.4-8.6-3.4c-2.3,0-4.3,0.5-6.1,1.5c-1.8,1-3.2,2.3-4.2,4.1c-1,1.7-1.5,3.7-1.5,5.9
		c0,2.2,0.5,4.1,1.5,5.8c1,1.7,2.4,3.1,4.2,4.1c1.8,1,3.8,1.5,6.1,1.5c2.7,0,5-0.6,7-1.9V100.4z"/>
	<path class="st0" d="M340.6,108h-15.8l-3.3,7.4h-4.4l13.5-29.8h4.2l13.5,29.8h-4.5L340.6,108z M339.1,104.6L332.7,90l-6.4,14.6
		H339.1z"/>
	<path class="st0" d="M366.4,114.7c-2.1-0.7-3.7-1.6-4.9-2.7l1.6-3.3c1.1,1,2.6,1.8,4.4,2.5c1.8,0.6,3.6,1,5.5,1
		c2.5,0,4.3-0.4,5.5-1.3c1.2-0.8,1.8-1.9,1.8-3.3c0-1-0.3-1.8-1-2.5c-0.7-0.6-1.5-1.1-2.5-1.5c-1-0.3-2.4-0.7-4.1-1.1
		c-2.2-0.5-4-1.1-5.4-1.6c-1.4-0.5-2.6-1.4-3.5-2.5c-1-1.1-1.5-2.6-1.5-4.5c0-1.6,0.4-3,1.3-4.3c0.8-1.3,2.1-2.3,3.8-3.1
		c1.7-0.8,3.8-1.1,6.3-1.1c1.8,0,3.5,0.2,5.2,0.7c1.7,0.5,3.2,1.1,4.4,2l-1.4,3.4c-1.2-0.8-2.6-1.4-4-1.8c-1.4-0.4-2.8-0.6-4.2-0.6
		c-2.4,0-4.2,0.4-5.4,1.3c-1.2,0.9-1.8,2-1.8,3.4c0,1,0.3,1.8,1,2.5c0.7,0.6,1.5,1.1,2.5,1.5c1,0.4,2.4,0.7,4.1,1.1
		c2.2,0.5,4,1.1,5.4,1.6s2.5,1.4,3.5,2.5c1,1.1,1.5,2.6,1.5,4.5c0,1.6-0.4,3-1.3,4.3c-0.8,1.3-2.1,2.3-3.9,3.1
		c-1.7,0.8-3.9,1.1-6.4,1.1C370.6,115.7,368.5,115.4,366.4,114.7z"/>
	<path class="st0" d="M396.1,89.3h-10.2v-3.7h24.6v3.7h-10.2v26.1h-4.2V89.3z"/>
	<path class="st0" d="M417.6,112.3c-2.2-2.3-3.3-5.5-3.3-9.8V85.7h4.3v16.7c0,6.4,2.8,9.6,8.4,9.6c2.7,0,4.8-0.8,6.2-2.4
		c1.4-1.6,2.2-4,2.2-7.2V85.7h4.1v16.9c0,4.3-1.1,7.5-3.3,9.8c-2.2,2.3-5.3,3.4-9.3,3.4S419.8,114.6,417.6,112.3z"/>
	<path class="st0" d="M448.2,85.7h12.5c3.1,0,5.9,0.6,8.4,1.9c2.4,1.2,4.3,3,5.7,5.2c1.3,2.3,2,4.8,2,7.8c0,2.9-0.7,5.5-2,7.8
		c-1.3,2.3-3.2,4-5.7,5.2c-2.4,1.2-5.2,1.9-8.4,1.9h-12.5V85.7z M460.5,111.7c2.4,0,4.5-0.5,6.4-1.4c1.8-0.9,3.2-2.2,4.2-3.9
		c1-1.7,1.5-3.6,1.5-5.8c0-2.2-0.5-4.2-1.5-5.8c-1-1.7-2.4-3-4.2-3.9c-1.8-0.9-3.9-1.4-6.4-1.4h-8v22.4H460.5z"/>
	<path class="st0" d="M504.9,111.7v3.7h-21.6V85.7h21v3.7h-16.7v9.1h14.9v3.6h-14.9v9.6H504.9z"/>
	<path class="st0" d="M537.3,85.7v29.8h-3.5L516,93.2v22.2h-4.3V85.7h3.5l17.9,22.2V85.7H537.3z"/>
	<path class="st0" d="M552.2,89.3H542v-3.7h24.6v3.7h-10.2v26.1h-4.2V89.3z M555.8,120c0.4,0.4,0.6,0.8,0.6,1.4
		c0,0.7-0.2,1.4-0.6,2.2l-1.3,3.1h-2.1l1-3.4c-0.4-0.1-0.8-0.4-1-0.7c-0.2-0.3-0.4-0.7-0.4-1.1c0-0.6,0.2-1,0.6-1.4
		c0.4-0.4,0.9-0.6,1.6-0.6C554.9,119.4,555.4,119.6,555.8,120z"/>
	<path class="st0" d="M571.2,85.7h4.3v29.8h-4.3V85.7z"/>
	<path class="st0" d="M584.4,85.7h4.3v26.1h16.1v3.7h-20.4V85.7z"/>
	<path class="st0" d="M614.4,113.8c-2.4-1.3-4.3-3.1-5.7-5.5c-1.4-2.3-2.1-4.9-2.1-7.8c0-2.9,0.7-5.5,2.1-7.8
		c1.4-2.3,3.3-4.1,5.7-5.5c2.4-1.3,5.1-2,8.1-2c3,0,5.7,0.7,8.1,2c2.4,1.3,4.3,3.1,5.7,5.4c1.4,2.3,2,4.9,2,7.8s-0.7,5.5-2,7.8
		s-3.2,4.1-5.7,5.4c-2.4,1.3-5.1,2-8.1,2C619.5,115.7,616.8,115.1,614.4,113.8z M628.4,110.5c1.7-1,3.1-2.4,4.1-4.1
		c1-1.7,1.5-3.7,1.5-5.8c0-2.2-0.5-4.1-1.5-5.8c-1-1.7-2.4-3.1-4.1-4.1c-1.7-1-3.7-1.5-5.9-1.5c-2.2,0-4.2,0.5-5.9,1.5
		c-1.8,1-3.2,2.4-4.2,4.1c-1,1.7-1.5,3.7-1.5,5.8c0,2.2,0.5,4.1,1.5,5.8c1,1.7,2.4,3.1,4.2,4.1c1.8,1,3.7,1.5,5.9,1.5
		C624.7,112,626.7,111.5,628.4,110.5z"/>
	<path class="st0" d="M664.7,115.4l-6.4-9.1c-0.8,0.1-1.4,0.1-1.9,0.1H649v9.1h-4.3V85.7h11.6c3.9,0,6.9,0.9,9.1,2.8
		c2.2,1.8,3.3,4.4,3.3,7.6c0,2.3-0.6,4.3-1.7,5.9c-1.1,1.6-2.7,2.8-4.8,3.5l7.1,10H664.7z M662.4,101c1.4-1.2,2.1-2.8,2.1-5
		c0-2.2-0.7-3.8-2.1-5c-1.4-1.1-3.5-1.7-6.2-1.7H649v13.4h7.2C659,102.7,661,102.2,662.4,101z"/>
	<path class="st0" d="M708.7,111.7v3.7h-21.6V85.7h21v3.7h-16.7v9.1h14.9v3.6h-14.9v9.6H708.7z"/>
	<path class="st0" d="M715.6,85.7h4.3v26.1H736v3.7h-20.4V85.7z"/>
	<path class="st0" d="M762.4,111.7v3.7h-21.6V85.7h21v3.7h-16.7v9.1H760v3.6h-14.9v9.6H762.4z"/>
	<path class="st0" d="M774.4,113.8c-2.4-1.3-4.3-3.1-5.6-5.4s-2-4.9-2-7.8s0.7-5.5,2-7.8c1.4-2.3,3.2-4.1,5.7-5.4
		c2.4-1.3,5.1-2,8.1-2c2.3,0,4.4,0.4,6.4,1.2c1.9,0.8,3.6,1.9,4.9,3.5l-2.8,2.7c-2.2-2.4-5-3.5-8.4-3.5c-2.2,0-4.2,0.5-6,1.5
		c-1.8,1-3.2,2.4-4.2,4.1c-1,1.7-1.5,3.7-1.5,5.8c0,2.2,0.5,4.1,1.5,5.8c1,1.7,2.4,3.1,4.2,4.1c1.8,1,3.8,1.5,6,1.5
		c3.3,0,6.1-1.2,8.4-3.6l2.8,2.7c-1.4,1.5-3,2.7-5,3.5c-1.9,0.8-4.1,1.2-6.4,1.2C779.5,115.7,776.8,115.1,774.4,113.8z"/>
	<path class="st0" d="M805.5,89.3h-10.2v-3.7h24.6v3.7h-10.2v26.1h-4.2V89.3z"/>
	<path class="st0" d="M844.4,115.4l-6.4-9.1c-0.8,0.1-1.4,0.1-1.9,0.1h-7.4v9.1h-4.3V85.7h11.6c3.9,0,6.9,0.9,9.1,2.8
		c2.2,1.8,3.3,4.4,3.3,7.6c0,2.3-0.6,4.3-1.7,5.9c-1.1,1.6-2.7,2.8-4.8,3.5l7.1,10H844.4z M842.2,101c1.4-1.2,2.1-2.8,2.1-5
		c0-2.2-0.7-3.8-2.1-5c-1.4-1.1-3.5-1.7-6.2-1.7h-7.2v13.4h7.2C838.7,102.7,840.8,102.2,842.2,101z"/>
	<path class="st0" d="M860.8,113.8c-2.4-1.3-4.3-3.1-5.7-5.5c-1.4-2.3-2.1-4.9-2.1-7.8c0-2.9,0.7-5.5,2.1-7.8
		c1.4-2.3,3.3-4.1,5.7-5.5c2.4-1.3,5.1-2,8.1-2c3,0,5.7,0.7,8.1,2c2.4,1.3,4.3,3.1,5.7,5.4c1.4,2.3,2,4.9,2,7.8s-0.7,5.5-2,7.8
		s-3.2,4.1-5.7,5.4c-2.4,1.3-5.1,2-8.1,2C865.9,115.7,863.2,115.1,860.8,113.8z M874.8,110.5c1.7-1,3.1-2.4,4.1-4.1
		c1-1.7,1.5-3.7,1.5-5.8c0-2.2-0.5-4.1-1.5-5.8c-1-1.7-2.4-3.1-4.1-4.1c-1.7-1-3.7-1.5-5.9-1.5c-2.2,0-4.2,0.5-5.9,1.5
		c-1.8,1-3.2,2.4-4.2,4.1c-1,1.7-1.5,3.7-1.5,5.8c0,2.2,0.5,4.1,1.5,5.8c1,1.7,2.4,3.1,4.2,4.1c1.8,1,3.7,1.5,5.9,1.5
		C871.1,112,873,111.5,874.8,110.5z"/>
	<path class="st0" d="M916.7,85.7v29.8h-3.5l-17.9-22.2v22.2h-4.3V85.7h3.5l17.9,22.2V85.7H916.7z"/>
	<path class="st0" d="M925.7,85.7h4.3v29.8h-4.3V85.7z"/>
	<path class="st0" d="M941,114.7c-2.1-0.7-3.7-1.6-4.9-2.7l1.6-3.3c1.1,1,2.6,1.8,4.4,2.5c1.8,0.6,3.6,1,5.5,1
		c2.5,0,4.3-0.4,5.5-1.3c1.2-0.8,1.8-1.9,1.8-3.3c0-1-0.3-1.8-1-2.5c-0.7-0.6-1.5-1.1-2.5-1.5c-1-0.3-2.4-0.7-4.1-1.1
		c-2.2-0.5-4-1.1-5.4-1.6c-1.4-0.5-2.6-1.4-3.5-2.5c-1-1.1-1.5-2.6-1.5-4.5c0-1.6,0.4-3,1.3-4.3c0.8-1.3,2.1-2.3,3.8-3.1
		s3.8-1.1,6.3-1.1c1.8,0,3.5,0.2,5.2,0.7c1.7,0.5,3.2,1.1,4.4,2l-1.4,3.4c-1.2-0.8-2.6-1.4-4-1.8c-1.4-0.4-2.8-0.6-4.2-0.6
		c-2.4,0-4.2,0.4-5.4,1.3c-1.2,0.9-1.8,2-1.8,3.4c0,1,0.3,1.8,1,2.5c0.7,0.6,1.5,1.1,2.5,1.5c1,0.4,2.4,0.7,4.1,1.1
		c2.2,0.5,4,1.1,5.4,1.6s2.5,1.4,3.5,2.5c1,1.1,1.5,2.6,1.5,4.5c0,1.6-0.4,3-1.3,4.3c-0.9,1.3-2.1,2.3-3.9,3.1
		c-1.7,0.8-3.9,1.1-6.4,1.1C945.3,115.7,943.1,115.4,941,114.7z M949.6,120c0.4,0.4,0.6,0.8,0.6,1.4c0,0.7-0.2,1.4-0.6,2.2l-1.3,3.1
		h-2.1l1-3.4c-0.4-0.1-0.8-0.4-1-0.7c-0.2-0.3-0.4-0.7-0.4-1.1c0-0.6,0.2-1,0.6-1.4c0.4-0.4,0.9-0.6,1.6-0.6S949.2,119.6,949.6,120z
		"/>
	<path class="st0" d="M970.7,89.3h-10.2v-3.7h24.6v3.7h-10.2v26.1h-4.2V89.3z"/>
	<path class="st0" d="M989.7,85.7h4.3v29.8h-4.3V85.7z"/>
</g>
</svg>
