<?xml version="1.0" encoding="utf-8"?>
<!-- Generator: Adobe Illustrator 25.1.0, SVG Export Plug-In . SVG Version: 6.00 Build 0)  -->
<svg version="1.1" id="Layer_1" xmlns="http://www.w3.org/2000/svg" xmlns:xlink="http://www.w3.org/1999/xlink" x="0px" y="0px"
	 viewBox="0 0 1000 200" style="enable-background:new 0 0 1000 200;" xml:space="preserve">
<style type="text/css">
	.st0{fill:#0A549F;}
	.st1{font-family:'Montserrat-Medium';}
	.st2{font-size:37.9319px;}
</style>
<g id="XMLID_1_">
	<path id="XMLID_15_" class="st0" d="M136.1,12.4C87,12.4,47,52.5,47,101.7S87,191,136.1,191s89.1-40,89.1-89.3
		S185.2,12.4,136.1,12.4z M136.1,187.5c-47.2,0-85.7-38.5-85.7-85.8s38.4-85.8,85.7-85.8c47.2,0,85.7,38.5,85.7,85.8
		S183.3,187.5,136.1,187.5z"/>
	<path id="XMLID_7_" class="st0" d="M172.6,126.4l-8.9,28.8L78.7,155l0-1.7l3.8-0.1c3.4-0.1,4.7-0.1,7.4-2.2
		c2.7-2.1,3.9-5.5,3.9-9.3V58.4c0-4.6-2.1-7.4-5.1-9.2c-3-1.8-5.9-2.1-9.9-2.2v-2.3h48.2v2.7c-4,0.1-9.7-0.2-12.7,1.5
		c-3.1,1.8-5,5-5,9.7l0.8,84.7c0,3.5,0.9,4,2.3,4.6c0.8,0.3,3.1,0.7,6.4,0.7l30,0c5.7,0,10.7-5.2,12.5-7.1c1.9-2,8.3-12,10.2-15.7
		L172.6,126.4z"/>
	<path id="XMLID_6_" class="st0" d="M157.6,127.9c0,2.5-0.7,4.9-2.2,7.3c-1.5,2.3-3.7,4.3-6.7,5.8c-3,1.5-6.7,2.2-11.2,2.2
		c-2.8,0-5.3-0.3-7.4-0.8c-2.2-0.5-3-0.8-5.2-1.7c-0.9-0.3-2.5-0.5-2.8-0.5c-0.6,0-1.6,0.5-1.8,1c-0.2,0.4-0.2,1.4-0.5,2.7l-0.8,0.1
		l-0.2-18.1h0.8c1.1,4.3,3.3,9.8,6.5,12c3.2,2.2,7.1,3.3,11.6,3.3c3.4,0,5.7-0.2,7.7-1.4c2-1.2,3.1-3,3.6-4.7
		c0.5-1.7,0.5-5.2,0.3-7.1c-0.3-2.2-2-4.5-4.3-6.6c-2.3-2.1-3.8-2.7-8.5-4.9c-3.3-1.5-5.6-3.1-7.2-4c-0.5-0.3-1.1-0.6-1.6-0.9
		c0,0-3.1-1.8-5.5-3.9c-2.6-2.2-4-5.9-4-10c0-2.5,0.6-3.9,1.9-6.2c1.3-2.3,3.3-4.3,6-5.8c2.7-1.5,6-2.2,10-2.2
		c2.5,0,4.7,0.3,6.6,0.8c1.9,0.5,2.6,0.8,4.7,1.7c0.8,0.3,2,0.5,2.3,0.5c0.6,0,1.7-0.5,1.9-0.9c0.2-0.4,0.3-1.1,0.4-2.5l1.5,0
		l0,19.3l-1.9,0.1c-1-4.3-2.5-10.9-5.4-13.2c-2.9-2.2-6.1-3.9-10.2-3.9c-3.1,0-5.7,1.4-7.5,2.6c-1.8,1.2-2.2,1.8-2.6,3.5
		c-0.5,1.7-1,5.3-0.3,7.1c0.8,2,2.7,3.9,4.8,6c2.1,2.1,3.8,2.4,7.9,4.7c3.2,1.7,4.4,2.1,4.9,2.4c4.3,2.2,7.7,4.3,10.2,6.4
		C156.2,120.5,157.6,123.8,157.6,127.9z"/>
	<path id="XMLID_5_" class="st0" d="M200.3,149.7l-1.7,5.7h-28.5v-0.4h0.7c1,0,2-0.3,3-0.9c1-0.6,1.5-1.6,1.5-3v-27.2
		c0-1.1-0.3-2.1-1-2.9c-0.7-0.8-1.8-1.2-3.5-1.2h-0.7v-0.4h28.5v5.7h-0.4c0-3-2.7-4.6-8.1-4.6h-10v16.4h8.8c1.7,0,3.3-0.2,4.7-0.6
		c1.4-0.4,2.1-1.4,2.3-2.9h0.5v8.2h-0.5c-0.2-0.9-0.6-1.6-1.1-2.1c-0.5-0.5-1.1-0.8-1.6-1c-0.5-0.2-1-0.2-1.4-0.2
		c-0.8-0.1-1.6-0.1-2.4-0.1h-9.2v12.8c0,1,0.2,1.8,0.7,2.5c0.5,0.7,1.6,1.1,3.4,1.1h7.1c1.7,0,3.1-0.2,4.2-0.6
		c1.1-0.4,2-0.9,2.6-1.6c0.6-0.7,1.2-1.5,1.6-2.4H200.3z"/>
</g>
<text id="XMLID_10_" transform="matrix(1 0 0 1 256.4214 113.6055)" class="st0 st1 st2">LIGA STUDENȚILOR ELECTRONIȘTI</text>
</svg>
