<?xml version="1.0" encoding="utf-8"?>
<!-- Generator: Adobe Illustrator 25.1.0, SVG Export Plug-In . SVG Version: 6.00 Build 0)  -->
<svg version="1.1" id="Layer_1" xmlns="http://www.w3.org/2000/svg" xmlns:xlink="http://www.w3.org/1999/xlink" x="0px" y="0px"
	 viewBox="0 0 841.9 595.3" style="enable-background:new 0 0 841.9 595.3;" xml:space="preserve">
<style type="text/css">
	.st0{fill:#FFFFFF;}
	.st1{display:none;fill:#FFFFFF;}
</style>
<path class="st0" d="M420.9,87.1c-115.9,0-210.2,94.5-210.2,210.6c0,116.1,94.3,210.6,210.2,210.6c115.9,0,210.2-94.5,210.2-210.6
	C631.1,181.5,536.8,87.1,420.9,87.1z M420.9,500.1c-111.4,0-202-90.8-202-202.4s90.6-202.4,202-202.4c111.4,0,202,90.8,202,202.4
	S532.4,500.1,420.9,500.1z"/>
<path class="st1" d="M420.9,64.9c-111.4,0-202,90.8-202,202.4s90.6,202.4,202,202.4c111.4,0,202-90.8,202-202.4
	S532.4,64.9,420.9,64.9z M421,224.7c5.9,0,11.1,0.6,15.6,1.8c4.5,1.2,6.2,1.9,11,3.9c1.9,0.8,4.7,1.1,5.4,1.1c1.4,0,4-1.2,4.4-2.2
	c0.4-0.9,0.7-2.6,0.9-5.8l3.5,0l0.1,45.6l-4.5,0.1c-2.3-10.2-6-25.8-12.7-31c-6.7-5.2-14.5-9.3-24.1-9.3c-7.2,0-13.4,3.4-17.6,6.2
	c-4.2,2.9-5.1,4.2-6.2,8.3c-1.1,4-2.3,12.5-0.7,16.7c1.9,4.8,6.4,9.2,11.3,14.2c4.8,5,8.9,5.7,18.7,11c7.5,4.1,10.4,4.8,11.6,5.6
	c10.1,5.1,18.2,10.1,24.1,15.2c6.5,5.6,9.8,13.2,9.8,23c0,5.9-1.7,11.7-5.2,17.2c-3.5,5.5-8.8,10-15.9,13.6
	c-7.1,3.5-15.9,5.3-26.3,5.3c-6.6,0-12.4-0.6-17.5-1.8c-5.1-1.2-7-1.9-12.3-3.9c-2.1-0.8-5.9-1.2-6.7-1.2c-1.5,0-3.8,1.3-4.3,2.3
	c-0.5,0.9-0.4,3.3-1.1,6.5l-2,0.3l-0.4-42.6h2c2.6,10.2,7.8,23.2,15.3,28.4c7.5,5.2,16.6,7.9,27.4,7.9c8.1,0,13.5-0.5,18.2-3.4
	c4.7-2.9,7.2-7,8.4-11.2c1.2-4,1.3-12.4,0.8-16.7c-0.6-5.2-4.6-10.7-10.1-15.7c-5.4-4.9-8.9-6.4-20-11.6c-7.7-3.6-13.2-7.4-16.9-9.4
	c-1.3-0.7-2.6-1.4-3.9-2.1c0,0-7.3-4.1-13-9.1c-6-5.3-9.5-13.9-9.5-23.6c0-5.9,1.4-9.2,4.6-14.7c3.1-5.5,7.9-10.1,14.2-13.6
	C403.8,226.5,411.7,224.7,421,224.7z M285.7,393.2l0.1-4.1l8.9-0.1c8.1-0.1,11.1-0.3,17.4-5.3s9.2-12.9,9.2-21.9V165.3
	c0-10.8-5.1-17.5-12.1-21.7c-7-4.2-13.8-4.9-23.5-5.1V133h113.6v6.4c-9.4,0.2-22.8-0.5-30,3.6c-7.3,4.2-11.8,11.7-11.7,22.8
	l1.8,199.9c0.1,8.2,2.1,9.5,5.4,10.9c2,0.8,7.2,1.6,15.1,1.7l70.7,0.1c13.3,0,25.2-12.2,29.5-16.8c4.5-4.7,19.6-28.3,24.2-37.1
	l2.7,1.2l-21.1,67.9L285.7,393.2z M501.1,393.9v-0.9h1.5c2.4,0,4.7-0.7,7-2.2s3.4-3.9,3.4-7.2v-64.2c0-2.6-0.8-4.9-2.3-6.8
	c-1.6-1.9-4.3-2.9-8.2-2.9h-1.5v-1h67.3v13.4h-1.1c0-7.2-6.3-10.8-19-10.8h-23.5V350h20.7c4.1,0,7.7-0.5,11-1.5
	c3.2-1,5.1-3.3,5.5-6.9h1.1v19.3H562c-0.5-2.2-1.3-3.9-2.6-5.1c-1.3-1.2-2.5-2-3.8-2.4c-1.3-0.4-2.4-0.6-3.3-0.6
	c-1.8-0.2-3.8-0.4-5.8-0.4h-21.7v30.3c0,2.3,0.6,4.2,1.7,5.9c1.1,1.7,3.8,2.5,8,2.5h16.8c4,0,7.4-0.4,10-1.3
	c2.6-0.9,4.7-2.1,6.2-3.7c1.5-1.6,2.8-3.5,3.8-5.7h1.1l-3.9,13.4H501.1z"/>
<path class="st0" d="M507,355.9l-21.1,67.9l-200.3-0.3l0.1-4.1l8.9-0.1c8.1-0.1,11.1-0.3,17.4-5.3s9.2-12.9,9.2-21.9V195.6
	c0-10.8-5.1-17.5-12.1-21.7c-7-4.2-13.8-4.9-23.5-5.1v-5.5h113.6v6.4c-9.4,0.2-22.8-0.5-30,3.6c-7.3,4.2-11.8,11.7-11.7,22.8
	l1.8,199.9c0.1,8.2,2.1,9.5,5.4,10.9c2,0.8,7.2,1.6,15.1,1.7l70.7,0.1c13.3,0,25.2-12.2,29.5-16.8c4.5-4.7,19.6-28.3,24.2-37.1
	L507,355.9z"/>
<path class="st0" d="M471.6,359.5c0,5.9-1.7,11.7-5.2,17.2c-3.5,5.5-8.8,10-15.9,13.6c-7.1,3.5-15.9,5.3-26.3,5.3
	c-6.6,0-12.4-0.6-17.5-1.8c-5.1-1.2-7-1.9-12.3-3.9c-2.1-0.8-5.9-1.2-6.7-1.2c-1.5,0-3.8,1.3-4.3,2.3c-0.5,0.9-0.4,3.3-1.1,6.5
	l-2,0.3l-0.4-42.6h2c2.6,10.2,7.8,23.2,15.3,28.4c7.5,5.2,16.6,7.9,27.4,7.9c8.1,0,13.5-0.5,18.2-3.4c4.7-2.9,7.2-7,8.4-11.2
	c1.2-4,1.3-12.4,0.8-16.7c-0.6-5.2-4.6-10.7-10.1-15.7c-5.4-4.9-8.9-6.4-20-11.6c-7.7-3.6-13.2-7.4-16.9-9.4
	c-1.3-0.7-2.6-1.4-3.9-2.1c0,0-7.3-4.1-13-9.1c-6-5.3-9.5-13.9-9.5-23.6c0-5.9,1.4-9.2,4.6-14.7c3.1-5.5,7.9-10.1,14.2-13.6
	c6.3-3.5,14.2-5.3,23.5-5.3c5.9,0,11.1,0.6,15.6,1.8c4.5,1.2,6.2,1.9,11,3.9c1.9,0.8,4.7,1.1,5.4,1.1c1.4,0,4-1.2,4.4-2.2
	c0.4-0.9,0.7-2.6,0.9-5.8l3.5,0l0.1,45.6l-4.5,0.1c-2.3-10.2-6-25.8-12.7-31c-6.7-5.2-14.5-9.3-24.1-9.3c-7.2,0-13.4,3.4-17.6,6.2
	c-4.2,2.9-5.1,4.2-6.2,8.3c-1.1,4-2.3,12.5-0.7,16.7c1.9,4.8,6.4,9.2,11.3,14.2c4.8,5,8.9,5.7,18.7,11c7.5,4.1,10.4,4.8,11.6,5.6
	c10.1,5.1,18.2,10.1,24.1,15.2C468.4,342.1,471.6,349.8,471.6,359.5z"/>
<path class="st0" d="M572.3,410.8l-3.9,13.4h-67.3v-0.9h1.5c2.4,0,4.7-0.7,7-2.2s3.4-3.9,3.4-7.2v-64.2c0-2.6-0.8-4.9-2.3-6.8
	c-1.6-1.9-4.3-2.9-8.2-2.9h-1.5v-1h67.3v13.4h-1.1c0-7.2-6.3-10.8-19-10.8h-23.5v38.7h20.7c4.1,0,7.7-0.5,11-1.5
	c3.2-1,5.1-3.3,5.5-6.9h1.1v19.3H562c-0.5-2.2-1.3-3.9-2.6-5.1c-1.3-1.2-2.5-2-3.8-2.4c-1.3-0.4-2.4-0.6-3.3-0.6
	c-1.8-0.2-3.8-0.4-5.8-0.4h-21.7v30.3c0,2.3,0.6,4.2,1.7,5.9c1.1,1.7,3.8,2.5,8,2.5h16.8c4,0,7.4-0.4,10-1.3
	c2.6-0.9,4.7-2.1,6.2-3.7c1.5-1.6,2.8-3.5,3.8-5.7H572.3z"/>
</svg>
