<svg id="Layer_1" data-name="Layer 1" xmlns="http://www.w3.org/2000/svg" viewBox="0 0 996.71 998.61"><defs><style>.cls-1{fill:#fff;}</style></defs><path class="cls-1" d="M499.76.54C225,.83,1.64,225.12,1.94,500.38S226.05,999.44,500.83,999.14,999,774.56,998.65,499.3C998.35,223.81,774.54.24,499.76.54Zm1.05,979.16C236.7,980,21.67,764.94,21.38,500.36S235.67,20.26,499.78,20,978.92,234.74,979.21,499.33,765.16,979.42,500.81,979.7Z" transform="translate(-1.94 -0.54)"/><path class="cls-1" d="M704.57,637.61l-49.85,161-474.88-.2.23-9.72,21.1-.26c19.2-.26,26.31-.74,41.24-12.61s21.77-30.61,21.75-52L263.66,258c0-25.61-12.14-41.48-28.74-51.42s-32.73-11.58-55.73-12v-13l269.33-.29v15.18c-22.28.49-54.06-1.13-71.12,8.61-17.29,10-27.94,27.77-27.68,54.08l4.78,473.93c.26,19.44,5,22.52,12.83,25.83,4.75,1.89,17.08,3.78,35.81,4l167.62.06c31.53,0,59.71-29,69.89-39.9,10.66-11.16,46.4-67.15,57.28-88Z" transform="translate(-1.94 -0.54)"/><path class="cls-1" d="M620.66,646.23c0,14-4,27.74-12.29,40.79s-20.84,23.73-37.66,32.29c-16.83,8.31-37.68,12.6-62.34,12.63-15.65,0-29.4-1.39-41.5-4.22s-16.6-4.49-29.17-9.22c-5-1.89-14-2.83-15.89-2.83-3.55,0-9,3.1-10.18,5.47-1.19,2.13-.94,7.82-2.6,15.41l-4.74.72-1.05-101H408c6.19,24.18,18.55,55,36.35,67.3s39.37,18.69,65,18.66c19.2,0,32-1.22,43.14-8.11a44.72,44.72,0,0,0,19.88-26.57c2.84-9.49,3-29.41,1.86-39.6-1.44-12.33-10.93-25.36-24-37.2-12.81-11.6-21.11-15.15-47.44-27.45-18.27-8.51-31.32-17.51-40.1-22.24l-9.25-5s-17.31-9.7-30.84-21.54C408.33,522,400,501.61,400,478.61c0-14,3.29-21.81,10.86-34.86,7.34-13.05,18.71-24,33.64-32.28s33.65-12.6,55.7-12.63q21,0,37,4.23c10.67,2.83,14.7,4.49,26.09,9.22a42.9,42.9,0,0,0,12.8,2.59c3.32,0,9.48-2.85,10.43-5.22.94-2.14,1.65-6.17,2.12-13.76h8.29L597.27,504l-10.67.25c-5.48-24.17-14.29-61.15-30.19-73.46s-34.4-22-57.16-22c-17.07,0-31.76,8.1-41.71,14.74-10,6.89-12.08,10-14.68,19.7-2.6,9.49-5.42,29.64-1.62,39.59,4.52,11.38,15.2,21.8,26.83,33.64,11.39,11.84,21.11,13.49,44.36,26,17.79,9.7,24.67,11.36,27.52,13.25,24,12.07,43.17,23.9,57.18,36C613,605,620.63,623.23,620.66,646.23Z" transform="translate(-1.94 -0.54)"/><path class="cls-1" d="M859.53,767.6l-9.21,31.78-159.56.17v-2.13h3.55a29.73,29.73,0,0,0,16.6-5.23c5.44-3.56,8.05-9.26,8-17.08l-.17-152.21a25.42,25.42,0,0,0-5.47-16.12c-3.79-4.5-10.2-6.86-19.44-6.85h-3.56v-2.37l159.56-.17,0,31.77h-2.61c0-17.07-15-25.59-45.07-25.55l-55.72.06.1,91.75,49.08,0a88.86,88.86,0,0,0,26.07-3.59c7.59-2.38,12.09-7.83,13-16.37h2.6l0,45.75h-2.37c-1.19-5.22-3.09-9.25-6.17-12.09a23.94,23.94,0,0,0-9-5.68A27.31,27.31,0,0,0,812,702a126.24,126.24,0,0,0-13.75-.94l-51.45.06.08,71.84a24.93,24.93,0,0,0,4.05,14c2.61,4,9,5.92,19,5.91l39.83-.05c9.48,0,17.54-1,23.71-3.1s11.13-5,14.69-8.79a49.8,49.8,0,0,0,9-13.53h2.37Z" transform="translate(-1.94 -0.54)"/></svg>